<?xml version="1.0" encoding="UTF-8"?>
<svg version="1.1" viewBox="0 0 361.92 288.64" xmlns="http://www.w3.org/2000/svg">
 <path transform="translate(-221.4 -386.89)" d="m281.12 615.24c17.688 0.894 37.938 4.282 50.59 17.714 2.192 12.901-15.929 14.992-24.51 20.517-17.008 7.948-36.854 15.969-55.27 7.511-16.442 0.377-27.673-23.49-8.272-28.472 18.01-8.58 44.391-14.959 59.44 2.286 13.103 15.978-14.274 23.559-26.392 23.047-9.773 0.755-38.536-13.388-19.761-20.973 9.373-8.176 39.823-1.703 21.28 10.709-5.057 6.187 23.488-13.067 4.84-15.915-11.359-3.281-41.22 3.631-35.559 17.695 12.391 11.537 30.775 14.647 46.014 6.913 20.253-2.012 22.425-25.472 3.902-31.589-20.992-8.779-44.314 0.901-62.593 11.748 8.407-16.368 29.564-20.648 46.291-21.191zm204.04-176.54c11.857 15.062 34.961 13.24 52.359 11.923 10.288 2.293 27.717-19.603 24.42-0.535 4.494 17.074 8.844 34.2 10.673 51.836 4.289 30.398-4.579 60.632-3.012 91.019 0.533 9.255 10.92 32.603-3.592 17.147-16.964-7.815-36.884-6.475-54.84-3.446-10.543 2.794-20.897 14.934-17.968-1.818-0.655-26.97 2.617-54.075-2.423-80.795-3.22-24.923-16.746-49.787-7.676-75.083 0.96-3.36 1.288-6.848 2.059-10.248zm-157.02-9.33c7.487 17.704 9.222 36.81 10.403 55.785 4.504 35.196 10.229 71.973-1.992 106.31-5.999 12.942-0.285 25.92-0.547 39.101-13.536-13.969-34.858-17.484-53.569-17.94-18.421 0.672-37.775 7.708-49.98 21.937-3.207-21.148-5.653-43.665 2.876-64.062 5.975-19.747 14.875-39.93 10.104-60.978 1.103-15.748-9.348-45.713-4.519-53.134 21.894 10.256 46.404-0.198 66.767-9.358 7.776-4.348 16.963-8.878 20.457-17.658zm185.77-7.452c10.354-2.266 9.393 14.157 1.578 8.188 11.328-9.131-16.472 6.037 1.58 3.418 12.616 0.742 5.87-18.65 15.063-6.158 8.365 18.532-30.765 18.134-30.517 1.233 1.13-5.752 7.552-6.425 12.296-6.681zm-238.72-10.386c14.571-2.729 33.181 12.498 21.479 26.81-10.851 12.065-29.892 12.116-44.535 8.441 14.253 4.7 41.333-13.653 17.564-22.152-7.54-2.34-13.337 4.392-1.915 3.512 21.53 12.64-11.866 21.491-22.446 13.377-18.054-14.844 9.402-29.994 23.968-29.606l2.938-0.268zm8.365-13.373c15.76 3.051 34.183 9.752 40.812 25.616 1.796 16.325-17.39 22.879-29.67 27.499-18.3 6.869-42.46 12.017-58.01-3.419-1.809-8.421 16.338 6.785 24.551 3.725 16.383 0.563 37.271-5.182 43.045-22.258 2.692-16.07-16.664-22.17-29.393-20.298-15.509 2.326-39.865 9.114-40.4 27.939-8.937-10.641-2.551-25.723 9.693-30.212 12.491-5.133 26.034-7.095 39.372-8.592zm-12.853-1.061c19.127-2.166-16.379 4.712-19.836 5.556-12.092 2.152-26.608 21.032-24.861 18.501 2.628-16.729 16.621-20.307 30.889-22.98 4.573-0.665 9.187-1.063 13.808-1.077zm149.24-7.454c31.722 0.308 63.35 4.634 94.524 10.232 15.998 4.583 33.176 8.495 46.536 18.896 13.35 13.176-5.787 29.147-19.602 28.924-17.254 1.408-40.87 3.598-52.166-11.964-4.427-16.821 16.718-21.92 28.701-16.745-15.623-2.437-30.307 19.069-9.397 24.02 13.546 7.025 43.436-12.016 21.657-23.225-14.701-9.388-40.267-6.764-45.819 11.953-2.622 18.483-10.261 37.081-4.233 55.805 8.491 29.584 13.396 60.427 10.925 91.243 0.174 16.261-0.245 32.763 0.094 48.827 8.4 14.83 28.593 14.454 43.529 16.278 15.047 5.266 44.368-9.416 25.459-25.028-13.678-7.705-33.571-0.645-39.567 13.576 3.44 11.162 35.975 10.431 31.603-3.509-6.63-6.543-19.36 8.16-5.715 1.904 10.361 11.063-32.915 7.067-18.303-5.896 8.779-11.452 36.299-7.613 33.454 9.445-9.163 13.496-30.943 4.686-44.891 3.812-15.117 1.048-32.253-21.038-12.151-27.798 17.95-4.411 37.878-5.12 55.458 1.237 16.314 6.652 24.998 32.568 8.642 43.776-20.893 8.68-42.28-3.405-62.746-7.531-19.579-7.488-40.416-10.394-61.318-9.557-22.5-1.732-45.614-3.264-67.274 4.528-24.52 7.659-47.611 19.907-73.356 23.419-17.992 2.72-36.974 10.269-55.014 4.293-9.001-4.629-13.849-15.083-0.95-6.952 23.81 10.607 47.88-4.135 69.29-13.661 14.31-4.715 25.906-17.031 20.104-32.924-5.858-18.628 6.955-36.434 7.67-54.982 3.632-35.545-5.136-70.66-7.024-106.02-4.163-14.95-6.14-32.066-15.92-44.33-5.688-7.326-27.138-14.145-25.422-14.712 41.071-2.305 82.092-6.493 123.22-7.336zm6.178-2.674c-39.077 0.612-77.968 4.473-116.93 6.894-21.24 1.319-28.889-2.41-52.197 2.044-9.306 1.782-18.74 5.675-25.634 11.227-18.014 14.509-3.614 37.037 1.178 66.112 3.106 18.837 7.568 40.733 5.805 59.937-1.777 19.384-11.271 37.015-15.373 55.892-3.19 14.678-0.92 15.082 0.612 36.746 1.484 20.964-2.847 48.193 38.34 49.696 46.062 1.682 89.92-23.247 110.91-29.587 38.102-11.504 81.352-5.101 95.72-3.647 34.768 3.518 65.087 30.33 96.79 16 26.218-11.849 17.052-37.692 12.837-69.44-1.787-13.466 0.197-21.106 0.896-28.669 1.951-21.168 4.501-42.648 1.797-64.02-2.504-19.799-7.957-34.471-10.308-50.151-1.057-7.061 2.663-18.845-3.308-27.188-17.528-24.481-101.95-31.768-141.14-31.846z" fill-rule="evenodd"/>
</svg>
