<?xml version='1.0' encoding='utf-8'?>
<svg xmlns="http://www.w3.org/2000/svg" version="1.1" width="600px" height="976px" viewBox="0 0 600 976"> <g id="layer1"> <g style="fill:rgb(0,0,0); fill-opacity:1.0; stroke-linejoin: miter"> </g> <g style="fill:rgb(0,0,0); fill-opacity:1.0; stroke-linejoin: miter"> <path d="M379.60117,479.8373C380.4686,479.9947,381.2601,480.1744,381.8888,480.3618L381.88498,480.3618Q382.50812,483.89056,382.77884,487.80548Q383.05722,491.8877,382.99173,497.03058Q382.96582,499.27713,382.86893,502.09296Q382.83572,503.08514,382.78223,504.3799C382.60486,504.31155,382.41415,504.27417,382.21317,504.27417C382.20248,504.27417,382.1918,504.27426,382.18106,504.27448C381.85086,504.27448,381.44864,504.3318,381.29074,504.38916C381.1889,504.4318,381.08746,504.49667,380.98907,504.57907Q380.5446,500.44412,380.30746,497.8387Q379.83246,492.71643,379.64767,488.7614Q379.42477,483.56522,379.59735,479.8373 Z M404.68665,526.37805C405.43344,526.3781,405.63464,526.43536,405.86438,526.694C406.02234,526.8807,406.2666,527.1967,406.3958,527.412C406.5395,527.6274,406.82657,527.9004,407.04208,528.01514C407.37244,528.18756,407.63092,528.73346,408.77988,531.56274C409.52676,533.41534,411.6379,538.60016,413.46194,543.11005C419.07755,556.95514,421.4904,562.98737,421.4186,563.0589C421.41565,563.06195,421.4055,563.0634,421.38876,563.0634C421.24326,563.0634,420.60013,562.9538,419.85315,562.7863C417.64133,562.2834,413.9503,561.75226,411.09216,561.49347C409.34976,561.34393,407.26688,561.2723,405.07465,561.2723C401.1593,561.2723,396.89514,561.50104,393.599,561.9245C391.8038,562.1685,389.3478,562.6281,388.77335,562.84357C388.6432,562.8947,388.5386,562.9202,388.46255,562.9202C388.30356,562.9202,388.26904,562.80853,388.38562,562.58527C388.51483,562.3553,390.91327,556.2226,398.05136,538.0114C400.5216,531.6776,401.8861,528.3887,402.07275,528.2452C402.47495,527.94354,403.06375,527.35455,403.45154,526.8231C403.76752,526.4067,403.85364,526.37805,404.68665,526.37805 Z M359.46008,526.378C360.1926,526.378,360.3936,526.43524,360.62347,526.6939C360.78146,526.88055,361.0256,527.1966,361.15494,527.41187C361.29837,527.6272,361.58563,527.9002,361.80115,528.01495C362.0884,528.1589,362.31815,528.5179,362.6485,529.35077C365.03265,535.19635,368.6232,544.0865,370.69138,549.2138C372.07007,552.64655,373.8798,557.1276,374.6984,559.1668C375.51706,561.19183,376.19202,562.9299,376.19202,563.0158C376.19202,563.07904,376.1458,563.11896,376.07593,563.11896C376.05038,563.11896,376.0217,563.1136,375.99094,563.1021C375.56012,562.9299,372.1563,562.28326,370.2318,562.01044C366.8993,561.51654,363.10132,561.2686,359.2264,561.2686C355.5529,561.2686,351.8102,561.4914,348.3294,561.93866C346.53406,562.1541,344.12122,562.6281,343.48926,562.8725C343.39087,562.90924,343.31616,562.9277,343.2629,562.9277C343.19177,562.9277,343.1589,562.89484,343.1589,562.82916C343.1589,562.6424,346.18936,554.8437,350.74222,543.3254C352.12097,539.8065,354.01678,534.9952,354.95035,532.6254C356.5302,528.604,356.6738,528.3024,357.14774,528.0007C357.42062,527.814,357.72226,527.5268,357.82278,527.35443C358.2249,526.55005,358.52658,526.378,359.45984,526.378 Z M255.72578,304.0469C255.57684,304.0524,254.53166,304.81244,253.34453,305.66724C251.24765,307.1922,250.48515,308.71716,226.65703,357.61255C213.1703,385.30078,201.92343,407.9375,201.6375,407.9375C201.35156,407.9375,198.2539,406.98438,194.72734,405.79297C191.41695,404.65927,188.58124,403.7845,188.27321,403.7845C188.25754,403.7845,188.2484,403.78677,188.2461,403.79138C188.19844,403.8391,188.00781,405.07813,187.81718,406.55548L187.4836,409.22424L191.01015,411.98828C194.0125,414.3235,194.48906,414.943,194.48906,416.22974C194.48906,417.13513,194.15546,417.9453,193.63124,418.37427C192.96405,418.85083,192.82109,419.375,193.01172,420.3758C193.15468,421.09064,193.05937,421.85315,192.77344,422.04376C192.48749,422.18677,192.43983,422.94922,192.58281,423.66406C192.72577,424.42657,192.67812,425.14142,192.39218,425.33203C191.58203,425.8086,191.77264,427.23828,192.77344,428.47736C193.86952,429.81177,193.53593,431.28906,192.1539,431.28906C191.43906,431.28906,190.86719,431.8133,190.34296,432.90942C189.58046,434.48206,189.58046,434.52966,190.81952,435.72107C192.01093,436.86487,195.06093,438.4375,196.10938,438.4375C196.34766,438.4375,196.96718,437.72266,197.4914,436.91248C198.39687,435.53052,198.39687,435.29224,197.77734,434.5774C197.12012,433.84128,197.217,433.45325,197.78798,433.45325C198.25206,433.45325,199.02936,433.7096,199.96953,434.24377C201.3039,435.00623,202.01874,435.86407,202.4,437.0078C202.68593,437.91333,204.54453,441.77344,206.49843,445.58594C209.64374,451.6383,210.54921,452.97266,213.8375,456.261C215.88672,458.31018,219.03203,462.02734,220.74765,464.45782C226.51407,472.60703,234.52031,480.1844,242.76483,485.33124L244.7664,486.61798L244.71875,491.24063L244.67108,495.91095L247.62578,502.53516C249.3414,506.49063,250.77109,510.39844,251.00937,512.1141C251.43828,514.78284,251.34296,515.40234,249.77031,520.16797C248.86484,522.9797,247.67343,525.8867,247.14922,526.60156C246.625,527.3164,246.00546,528.5078,245.67188,529.2703C244.95703,531.27185,245.05234,535.84686,245.95781,538.5156C246.625,540.5648,246.625,540.9938,246.05313,541.9469C245.1,543.4242,244.62344,547.09375,245.05234,549.8102C245.29062,551.4305,245.86249,552.52655,247.19687,554.0039C248.43594,555.33826,249.05547,556.48206,249.05547,557.3875C249.10312,559.34143,249.91327,562.6297,251.00937,565.2031C251.67656,566.77576,252.43906,567.6336,253.53516,568.20544C254.82187,568.77734,255.20313,569.34924,255.67969,571.2555C257.39532,578.02264,262.44687,588.84064,268.97577,599.84924C271.07266,603.3281,273.02655,607.1406,273.36017,608.33203C273.7414,609.71405,274.7422,611.33435,276.17188,612.8117C280.46094,617.33905,280.46094,617.4344,280.9375,623.91565C281.22345,628.4906,281.17578,630.11096,280.65155,631.35C280.31796,632.16016,279.88907,634.20935,279.7461,635.8773C279.55548,637.4977,279.12656,639.16565,278.7453,639.59454C278.36407,640.02344,277.79218,642.16797,277.41095,644.36017C277.07733,646.55237,276.64844,648.7445,276.45782,649.17346C276.21954,649.79297,276.55313,650.0789,278.1258,650.5555L280.175,651.175L279.88907,654.7492C279.60312,658.8,278.2211,662.8031,276.26718,665.28125C275.55234,666.1867,274.5992,667.5687,274.17032,668.3789C272.83594,671.0,265.83047,678.0531,264.0672,678.625C262.39923,679.14923,261.7797,680.5789,262.8758,681.2461C263.63828,681.72266,263.44766,682.91406,262.58984,682.91406C262.2086,682.91406,261.58905,683.2,261.25546,683.53357C260.92188,683.8672,254.25,685.15393,246.14844,686.4406C238.18985,687.72736,228.89688,689.2523,225.46562,689.77655L219.27031,690.825L219.12733,695.16174L218.98438,699.5461L217.45937,699.83203C216.60156,699.975,213.78984,700.4992,211.16875,700.9281C206.59375,701.7383,206.40312,701.8336,206.26015,703.07263C206.16484,703.7875,205.83124,704.3594,205.5453,704.3594C204.59218,704.3594,188.86562,706.2656,187.72188,706.5039C187.20021,706.63434,186.8793,706.8763,186.72862,707.2755L413.46857,707.2755C413.4551,705.92194,413.27704,705.8246,411.46796,705.59845C410.32422,705.45544,405.9875,705.1219,401.79376,704.83594C397.59998,704.55,392.83435,704.21643,391.21405,704.0734L388.21173,703.7875L388.21173,702.21484C388.21173,700.35626,388.45,700.45154,380.2531,699.3078L374.39142,698.4977L374.39142,694.7328C374.39142,692.6836,374.29608,691.0156,374.20078,691.0156C374.10547,691.0156,372.91406,690.825,371.53204,690.53906C369.72107,690.20544,368.14844,689.3953,365.76563,687.632C363.95468,686.29767,362.47736,684.91565,362.47736,684.53436C362.47736,684.15314,362.23907,683.8672,362.0008,683.8672C361.71484,683.8672,361.28595,683.34296,361.0,682.72345C360.71405,682.1039,359.9039,681.34143,359.28436,681.0555C358.14063,680.53125,358.09296,680.4836,358.95078,679.8641C359.9992,679.0539,359.3797,678.10077,357.23517,677.1953C355.71014,676.5758,355.51953,676.2422,356.32968,675.432C356.71094,675.0508,356.37732,674.5742,355.13828,673.6211C354.18515,672.90625,353.42267,671.90546,353.42267,671.4289C353.42267,670.95233,352.32654,669.28436,350.9922,667.66406C348.89532,665.1383,348.60938,664.5664,348.89532,663.32733C349.18124,661.993,350.80157,660.08673,354.1375,657.08435C354.94763,656.4172,356.04376,655.22577,356.6156,654.46326L357.66406,653.03357L354.75702,646.8859C353.1844,643.5023,351.56406,639.4992,351.23047,637.97424C350.4203,634.54297,348.94296,631.6359,344.7492,625.10706C341.27032,619.6742,340.36484,617.52966,338.17267,609.47577C336.31406,602.66095,333.50232,595.22656,327.49765,580.97736C324.6859,574.35315,321.54062,566.4422,320.4922,563.4398C317.91876,556.0055,311.10388,541.6133,307.76794,536.6094C306.29062,534.4172,303.00232,530.41406,300.47656,527.79297C296.2828,523.45624,295.85388,522.83673,295.66327,520.8828C295.52032,519.6914,295.6156,518.21405,295.85388,517.5469C296.13983,516.7367,295.94922,515.21173,295.32968,512.8766C294.85416,511.02197,294.56842,509.4521,294.7566,509.44534L294.75955,509.44534C294.95215,509.45016,295.56967,510.25848,296.13983,511.25626C298.14142,514.83044,302.14453,518.02344,305.38513,518.7383C307.1961,519.0719,309.91248,521.59766,310.29376,523.1703C310.4367,523.9328,311.29453,525.5531,312.2,526.83984C313.10547,528.1266,313.86798,529.46094,313.86798,529.79456C313.86798,530.9383,317.8711,534.4172,321.01642,535.98987C323.82813,537.41956,324.59064,537.5625,328.8797,537.65784C329.93344,537.6911,330.75998,537.71405,331.42844,537.71405C333.63202,537.71405,334.11774,537.4647,335.36093,536.51404C337.88672,534.5602,338.50623,533.1305,337.50546,531.65314C336.5047,530.08044,336.55234,529.79456,337.83905,529.22266C338.64923,528.84143,338.93515,528.26953,339.03046,526.7445C339.17343,524.98126,339.03046,524.64764,337.50546,523.5039C335.78986,522.16956,335.3133,521.1211,336.3617,520.7875C337.21954,520.5016,336.5047,518.54767,334.07422,514.9258C332.8828,513.0672,331.45313,510.39844,330.9289,509.01642C329.7375,505.91876,326.35388,502.0586,324.1617,501.34375C323.2086,501.0578,322.06482,500.05704,321.15936,498.77032C320.20624,497.43594,319.0625,496.43518,317.9664,496.0539C316.34607,495.48206,316.2508,495.2914,316.2508,493.38516L316.2508,491.33594L319.0625,491.33594C320.5875,491.33594,323.01794,491.14532,324.4,490.85938C327.59296,490.2875,336.07578,487.6664,337.83905,486.7133C338.69687,486.23672,341.07968,485.90314,344.51093,485.76016C351.70703,485.47424,356.7586,484.52112,363.09686,482.23358C370.4359,479.56485,371.48438,479.27893,373.67657,479.27893C373.76892,479.2774,373.86288,479.27667,373.95834,479.27667C375.18393,479.27667,376.6551,479.39944,378.06476,479.5933L378.06097,479.5933Q377.93677,482.18546,377.99234,485.532Q378.0679,489.58972,378.5059,494.9708Q378.90335,499.93927,379.84833,508.34662L380.15753,511.10193L380.15372,511.10193C380.08652,511.3237,380.0699,511.54785,380.0699,511.8576C380.06985,512.3907,380.05115,512.5591,379.9308,512.5591C379.90195,512.5591,379.8673,512.54944,379.8257,512.53284C379.6821,512.4895,378.99277,512.2598,378.27457,512.0157C377.5709,511.7715,376.33572,511.46985,375.5458,511.35507C374.94177,511.26355,374.4301,511.20935,373.9402,511.20935C372.50803,511.20935,371.2617,511.67258,368.4365,513.02094C366.97156,513.71027,365.5353,514.3568,365.2193,514.45734C364.91776,514.5549,364.6066,514.6045,364.27655,514.6045C363.53778,514.6045,362.70435,514.3559,361.67194,513.83966C360.6076,513.3117,360.1187,513.08673,359.7594,513.08673C359.5126,513.08673,359.32693,513.1929,359.05795,513.37994C358.76514,513.5655,358.59174,513.6514,358.44302,513.6514C358.37292,513.6514,358.30832,513.6323,358.2393,513.5956C358.0471,513.4913,357.83807,513.44147,357.63876,513.44147C357.31683,513.44147,357.02017,513.57135,356.8605,513.8109C356.32916,514.6296,356.3722,515.7786,356.96103,516.4105C357.16766,516.6314,357.39194,516.74274,357.6321,516.74274C357.87616,516.74274,358.13663,516.62775,358.41168,516.39606C358.64142,516.195,358.8856,516.0369,358.95746,516.0369C359.1585,516.0369,359.9485,517.02814,360.04898,517.3872C360.09204,517.5737,360.10638,517.9328,360.07764,518.2056C360.03455,518.6512,359.99146,518.69403,359.51743,518.7372C359.42645,518.7455,359.3503,518.75055,359.28564,518.75055C359.0134,518.75055,358.9442,518.66003,358.82825,518.335C358.7203,518.0233,358.64246,517.9217,358.42764,517.9217C358.38504,517.9217,358.33707,517.9257,358.2824,517.93286C357.93765,517.976,357.88028,518.0478,357.83713,518.4929C357.79407,518.9383,357.8659,519.08185,358.2968,519.4552C358.67017,519.7855,358.81378,520.0155,358.81378,520.3458C358.81372,520.633,358.74194,520.7765,358.5984,520.7765C358.58783,520.7765,358.57782,520.7763,358.56827,520.7763C358.36987,520.7763,358.37082,520.8547,357.82278,524.26666C357.59302,525.674,357.37762,526.86615,357.3201,526.90924C357.23996,526.98944,357.09366,527.0273,356.9334,527.0273C356.7204,527.0273,356.48282,526.9604,356.34344,526.8375C356.23624,526.7436,356.16653,526.69666,356.0964,526.69666C356.01627,526.69666,355.93558,526.758,355.79773,526.88055C355.40997,527.22516,355.4387,527.613,355.8552,528.0297L356.21417,528.38855L353.41357,535.5265C350.64166,542.59296,349.32034,545.9677,344.86804,557.4577L342.58435,563.33185L343.17328,564.1075C344.04938,565.22784,346.27554,567.31024,347.45328,568.08563C348.78894,568.97614,350.69913,569.92426,352.12097,570.39813C354.50473,571.196,357.10196,571.58014,359.7001,571.58014C364.72552,571.58014,369.7543,570.143,373.24786,567.4826C374.61227,566.44855,375.9192,565.0267,376.47934,563.9639L376.82397,563.31757L375.28726,559.5401C371.13657,549.2138,368.29282,542.2052,364.18536,532.0797L362.67728,528.3743L363.03622,528.0871C363.49582,527.7278,363.52463,527.1822,363.09372,526.89496C362.95258,526.79614,362.8669,526.7459,362.78903,526.7459C362.7084,526.7459,362.6361,526.79974,362.51923,526.90936C362.40726,527.0127,362.32114,527.0644,362.24533,527.0644C362.19473,527.0644,362.14874,527.0413,362.10275,526.9953C362.0396,526.9324,361.9381,526.8924,361.8431,526.8924C361.80835,526.8924,361.77444,526.89777,361.74362,526.9093C361.71384,526.9205,361.68768,526.92896,361.6637,526.92896C361.5027,526.92896,361.4399,526.5457,361.03995,524.0081C360.54834,520.8536,360.5502,520.7763,360.35397,520.7763C360.34387,520.7763,360.33322,520.7765,360.32196,520.7765L360.32184,520.7765C359.9772,520.7765,360.03455,519.8287,360.37933,519.7281C360.52292,519.6995,360.76703,519.484,360.9107,519.26855C361.14047,518.9095,361.1549,518.78033,360.9825,517.8465C360.66656,516.06586,360.62347,515.5919,360.81018,515.46246C360.82947,515.4515,360.8667,515.4462,360.91855,515.4462C361.13705,515.4462,361.61517,515.53864,362.10278,515.6779C362.7202,515.8646,363.81186,516.08014,364.52997,516.1806C364.9616,516.2346,365.3467,516.26483,365.73413,516.26483C366.79044,516.26483,367.86383,516.04047,369.9445,515.46246C372.1848,514.8306,373.4344,514.60077,374.6408,514.60077L374.6413,514.60077C376.1061,514.60077,378.3321,515.1468,379.65338,515.836C380.0699,516.05145,380.0699,516.05145,379.98376,516.97064L379.88425,517.89435L384.0779,517.90405L384.278,517.8754L384.17752,516.97064C384.09125,516.05145,384.09125,516.05145,384.50775,515.836C385.8435,515.1468,388.0553,514.60077,389.549,514.60077C390.69797,514.60077,392.47888,514.9312,394.47522,515.5199C396.13986,516.01404,397.39417,516.2547,398.6171,516.2547C399.7049,516.2547,400.76788,516.0643,402.07275,515.69244C402.55136,515.54425,403.01187,515.4594,403.23193,515.4594C403.2892,515.4594,403.3302,515.46515,403.35098,515.477C403.5377,515.57745,403.49463,516.08014,403.17868,517.8466C403.00632,518.78046,403.02072,518.9096,403.25046,519.2687C403.39407,519.4842,403.63828,519.69965,403.78183,519.7282C404.1266,519.8288,404.15527,520.60443,403.8249,520.8486C403.65253,520.9777,403.45154,521.7964,403.10684,523.9508C402.84833,525.5592,402.63287,526.895,402.6186,526.895C402.6186,526.9095,402.44623,526.9526,402.23074,526.9954C402.16968,527.0063,402.1086,527.01166,402.04913,527.01166C401.8708,527.01166,401.70657,526.96313,401.59888,526.8663C401.5111,526.7853,401.44876,526.74554,401.37897,526.74554C401.30023,526.74554,401.2121,526.7961,401.06738,526.895C400.65088,527.18225,400.66528,527.72784,401.11047,528.0727L401.4551,528.3455L400.3349,531.2181C399.70294,532.79767,398.4678,535.95746,397.57736,538.2411C394.1017,547.1889,391.0857,554.93,389.49142,559.02325C387.53827,563.9926,387.55255,563.2745,389.4627,565.2708C391.6171,567.54,393.67078,568.9476,396.3997,570.0391C398.98697,571.0739,401.9309,571.57196,404.8951,571.57196C409.91147,571.57196,414.986,570.1458,418.4887,567.4827C419.85312,566.44855,421.1601,565.0268,421.7202,563.9639L422.06485,563.332L417.94293,553.14923C415.68802,547.54803,412.49973,539.6773,410.8768,535.6703L407.91815,528.3744L408.27728,528.08716C408.708,527.74225,408.7655,527.2396,408.39215,526.9094C408.22696,526.75854,408.11206,526.6831,408.0097,526.6831C407.90738,526.6831,407.81763,526.75854,407.70273,526.9094C407.61984,527.0253,407.56088,527.07916,407.4983,527.07916C407.45236,527.07916,407.40445,527.05023,407.3437,526.9954C407.28058,526.93243,407.1791,526.8925,407.08987,526.8925C407.05713,526.8925,407.02606,526.8979,406.9991,526.9095C406.96896,526.9201,406.94232,526.92804,406.91788,526.92804C406.74432,526.92804,406.682,526.5247,406.2666,523.7927C405.96497,521.8396,405.7926,521.0783,405.6059,520.89154C405.18936,520.47516,405.2756,519.8719,405.77826,519.58466C406.49634,519.15375,406.58246,518.0047,405.90747,517.9329C405.86896,517.92926,405.83353,517.9272,405.80066,517.9272C405.57605,517.9272,405.4727,518.0219,405.34738,518.33514C405.21964,518.6602,405.13882,518.7507,404.86993,518.7507C404.80612,518.7507,404.73175,518.7456,404.64365,518.73737C404.18405,518.69415,404.12656,518.63666,404.0834,518.26337C404.01163,517.617,404.28452,516.8702,404.7585,516.4106L405.18936,515.994L405.74948,516.3675C406.0976,516.61194,406.3617,516.7342,406.59293,516.7342C406.81012,516.7342,406.99838,516.6263,407.20007,516.4106C408.01877,515.5346,407.7602,513.6673,406.7836,513.4089C406.75894,513.4039,406.7296,513.4015,406.69672,513.4015C406.53806,513.4015,406.2964,513.45734,406.09424,513.55255C405.93518,513.6291,405.82928,513.6718,405.72403,513.6718C405.57263,513.6718,405.4226,513.58344,405.11765,513.38C404.8428,513.193,404.65366,513.08685,404.40482,513.08685C404.0425,513.08685,403.55362,513.3118,402.48935,513.8398C401.45688,514.356,400.6234,514.6046,399.8846,514.6046C399.55453,514.6046,399.24338,514.555,398.9418,514.45746C398.65463,514.3569,397.204,513.71027,395.739,513.02106C394.27408,512.3174,392.67993,511.6424,392.2059,511.49863C391.64035,511.32843,390.96143,511.24548,390.21533,511.24548C388.82043,511.24548,387.19073,511.53543,385.62817,512.0875C385.05356,512.2884,384.4791,512.48944,384.34973,512.547C384.3097,512.5595,384.27576,512.56683,384.247,512.56683C384.1109,512.56683,384.0913,512.40326,384.0913,511.8576C384.0913,511.55145,384.07504,511.32895,384.00977,511.10968L384.00595,511.10968Q384.0138,511.07584,384.01978,511.04022Q384.67157,498.71356,384.52707,492.62244Q384.42828,486.36368,383.56522,481.0127L383.56906,481.0127C386.06454,482.01932,389.83905,483.23438,390.68982,483.23438C391.21405,483.23438,391.54767,482.9008,391.54767,482.32892C391.54767,481.83795,391.64645,481.64334,392.1621,481.64334C392.44727,481.64334,392.85995,481.70285,393.45392,481.8047C393.91147,481.88425,394.3441,481.9223,394.70328,481.9223C395.20456,481.9223,395.5628,481.8482,395.6461,481.70938C396.02734,481.1375,394.45468,479.42188,393.5492,479.42188C392.5008,479.42188,389.64142,478.3258,389.64142,477.94452C389.64142,477.7539,390.54688,477.46796,391.6906,477.27734C394.26404,476.84845,394.59766,476.61017,393.8828,475.80002C393.61295,475.47018,393.07898,475.329,391.75858,475.329C390.9804,475.329,389.92905,475.37805,388.49765,475.4664C387.16895,475.54276,386.18774,475.58487,385.44897,475.58487C383.88242,475.58487,383.4058,475.39557,383.01718,474.9422C382.71112,474.54865,382.2044,474.23535,381.90207,474.18637L381.89825,474.18637Q381.1425,472.32196,380.34412,472.32196Q380.2768,472.32196,380.20917,472.3352L380.19846,472.33514Q380.16458,472.33286,380.13126,472.33286Q379.84216,472.33286,379.59586,472.5043C379.49728,472.413,379.39844,472.31998,379.3,472.2258C377.29843,470.3672,376.6789,468.9375,377.8703,468.9375C378.15625,468.9375,379.25232,468.69922,380.2531,468.4133C381.6828,468.03204,382.01642,467.69846,382.01642,466.79297C382.01642,466.00046,381.79675,465.63263,381.02463,465.63263C380.40387,465.63263,379.42596,465.8704,377.91797,466.3164C376.63123,466.69766,374.77264,467.03125,373.7242,467.03125C372.2469,467.03125,371.62732,467.36484,370.34064,468.69922C369.53046,469.65234,368.10077,470.60547,367.1953,470.89142C366.28986,471.17734,360.33282,471.4633,353.89923,471.5586C343.93906,471.70157,341.69922,471.84454,338.64923,472.70236C336.5956,473.2728,335.5321,473.50183,332.41406,473.50183C330.32236,473.50183,327.3061,473.39877,322.4461,473.22656C307.52966,472.6547,306.1953,472.51172,304.6703,471.3203C304.03632,470.8016,303.61145,470.57913,302.6581,470.57913C302.03485,470.57913,301.18573,470.6742,299.90466,470.84375C295.1867,471.41562,293.75702,471.79688,292.85156,472.5594C292.5108,472.8477,292.17007,472.99185,291.56766,472.99185C291.0748,472.99185,290.40677,472.89536,289.4203,472.70236C287.94296,472.36874,286.70392,471.93985,286.70392,471.70157C286.70392,471.4633,285.79843,470.89142,284.70233,470.41486C283.25922,469.80875,282.32303,469.18515,281.63968,468.29L281.63687,468.29L281.95117,468.1224L282.138,468.2375C282.6268,468.53625,283.1611,468.75778,283.64465,468.86072C283.648,468.86136,283.65143,468.86212,283.6548,468.8628C283.6934,468.87082,283.73163,468.87827,283.76947,468.8847C283.7815,468.88687,283.79346,468.8888,283.80548,468.89072C284.01013,468.9237,284.20914,468.9402,284.40253,468.9402C285.2877,468.9402,286.05484,468.59488,286.7019,467.90552C286.8111,467.78735,287.09473,467.5245,287.33276,467.32288C287.88467,466.85355,288.2691,466.40924,288.72104,465.7297C289.12012,465.12558,289.62692,464.2331,289.72903,463.95267C289.77762,463.8214,289.79834,463.69855,289.7991,463.55432C289.80112,463.14685,290.0287,462.51227,290.37003,461.97928C290.42758,461.8858,290.59467,461.69696,290.74283,461.55414C290.88785,461.41086,291.0685,461.21915,291.13898,461.12592C291.67865,460.41888,291.88565,459.51846,291.82477,458.17566C291.80655,457.795,291.78012,457.62073,291.71573,457.43298C291.631,457.1788,291.365,456.6469,290.4734,454.9235C289.9913,453.99643,289.97116,453.95187,290.05304,453.95166L290.05432,453.95166C290.05582,453.95163,290.05743,453.95163,290.05917,453.95163C290.11053,453.95163,290.27283,453.95886,290.42612,453.9664C290.49606,453.9701,290.5646,453.97192,290.6317,453.97192C291.34848,453.97192,291.90387,453.76257,292.28574,453.3529C292.54037,453.07874,292.64255,452.8689,292.75995,452.36786C292.81372,452.13516,292.85608,451.90915,292.8586,451.8648C292.85938,451.79126,292.87845,451.78033,293.12256,451.74426C293.85324,451.63208,294.25873,451.37003,294.3799,450.9374C294.49884,450.5011,294.3538,449.97336,293.95398,449.40195L293.80377,449.1876L294.04233,449.10153C294.31644,449.0032,294.66046,448.80133,294.84827,448.63104C295.29745,448.22037,295.427,447.56857,295.1912,446.89084C295.1586,446.7985,295.0268,446.52817,294.8941,446.29608L294.66046,445.86966L294.77008,445.49155C294.85544,445.19052,294.88226,445.0567,294.88196,444.85754C294.89203,444.20825,294.5641,443.6917,293.84207,443.21875L293.6048,443.06415L293.63828,442.94144C293.7035,442.70245,293.7149,442.41327,293.67108,442.1733C293.60333,441.8166,293.4124,441.54462,293.02048,441.29343C292.78006,441.13928,292.46378,440.99286,292.05362,440.83957L291.86124,440.7678L291.79987,440.58084C291.71722,440.33035,291.53653,440.02728,291.4015,439.91025C291.3559,439.87048,291.3092,439.83514,291.2611,439.8042C291.1589,439.73877,291.05045,439.69357,290.9339,439.66876L290.93097,439.66812C290.91565,439.66495,290.90027,439.6621,290.8848,439.65958C290.829,439.6506,290.77142,439.64612,290.71182,439.64612C290.4512,439.64612,290.15244,439.732,289.80084,439.90405L289.4483,440.07767L289.43558,439.97144C289.4106,439.73343,289.18256,438.64993,289.0814,438.2789C288.4593,436.0153,287.36383,434.04987,285.75464,432.32022C285.27563,431.80417,284.29764,430.92737,283.72214,430.4942C283.3746,430.23257,283.0077,429.97818,282.62637,429.7337C281.1664,428.79773,279.49417,428.0066,277.87634,427.49673C277.48868,427.37485,277.39877,427.34335,277.206,427.2196C277.16772,427.1952,277.12555,427.167,277.0762,427.13397C276.94675,427.04608,276.8165,426.96045,276.68576,426.87656C275.6062,426.1845,274.48468,425.6261,273.3724,425.2311C272.98596,425.09274,272.1234,424.86664,271.5323,424.741C271.52002,424.73828,271.50787,424.73578,271.49585,424.7333C271.37097,424.70706,271.25943,424.68576,271.1686,424.67105C271.1567,424.66922,271.14523,424.66742,271.13406,424.66565C270.6126,424.5878,270.09573,424.54932,269.58997,424.54932C268.30316,424.54932,267.08823,424.79858,266.05228,425.28354C265.94147,425.33682,265.59265,425.4506,265.27954,425.53864C264.63312,425.71875,264.32336,425.83014,263.9161,426.04016C263.34845,426.33163,262.9566,426.62625,262.574,427.05176C261.5301,428.21857,261.1885,429.9302,261.59857,431.95932L261.7298,432.60846L261.57733,432.70807C261.175,432.97086,260.685,433.46017,259.9824,434.30566C259.73108,434.60327,259.43158,434.93582,259.31964,435.04022C258.5442,435.74075,257.96118,436.6415,257.43008,437.97702C257.2826,438.34146,257.18854,438.66263,256.86066,439.87686L256.46793,441.34018L256.2845,441.27084C256.18353,441.2325,256.0972,441.19165,256.0194,441.1419C255.7991,441.00052,255.64738,440.78644,255.4256,440.34634C255.33913,440.1704,255.2579,440.02625,255.24017,440.01312L255.2389,440.0129L255.23636,440.0129C255.19643,440.0407,255.20723,440.52625,255.25523,440.7944C255.31464,441.14133,255.41687,441.4614,255.64441,442.0051C255.72942,442.21136,255.79852,442.3939,255.79349,442.41177C255.7821,442.45374,255.15787,442.92902,254.78053,443.18246C254.05028,443.67053,253.04959,444.29028,252.8737,444.35797C252.77292,444.39795,252.56909,444.4741,252.42212,444.53027C252.02663,444.6729,251.87756,444.76077,251.84735,444.8713C251.77979,445.1194,252.04364,445.78867,252.44499,446.38925C252.78215,446.8955,252.89711,447.10995,252.9265,447.28488C252.98138,447.6016,252.79065,447.91266,252.2955,448.32687C251.87244,448.67697,251.83147,448.8391,252.07924,449.16696C252.24008,449.37772,252.42946,449.73138,252.46024,449.8777C252.48228,449.97363,252.47765,449.97876,252.34505,450.0647C252.0021,450.286,251.88152,450.55167,251.95534,450.92816C251.98576,451.08746,252.05318,451.24078,252.21788,451.5201C252.44995,451.91733,252.51653,452.0737,252.57562,452.3627C252.66707,452.80496,252.57034,453.28918,252.26225,453.9599C252.0345,454.4534,251.95874,454.83728,251.97989,455.36002C252.00845,456.0326,252.30026,456.6227,252.83238,457.0857C252.94916,457.18762,253.06104,457.2745,253.18033,457.35083C253.53256,457.57666,253.9493,457.71246,254.74648,457.88217C254.76817,457.88678,254.7902,457.89142,254.81247,457.89597C254.87646,457.90942,254.94284,457.92307,255.01169,457.93704C255.03949,457.9427,255.06787,457.94858,255.09686,457.9546C255.11696,457.95883,255.13727,457.9631,255.15778,457.9676C256.22293,458.19418,257.99988,458.65454,258.45914,458.82578C258.75293,458.9364,259.0101,459.06003,259.19574,459.17908C259.26218,459.22162,259.3195,459.2636,259.36594,459.30432C259.52377,459.44363,259.6314,459.64957,259.7094,459.97586C259.7744,460.24414,261.04935,464.04712,261.1822,464.37225C261.2152,464.4519,261.29065,464.61053,261.34985,464.72302C262.02676,466.01678,262.0534,467.94174,261.41586,469.8526L261.41327,469.8526C261.2623,469.8714,261.09216,469.8814,260.89783,469.88635L260.89783,469.88635Q260.53546,469.72748,260.14053,469.5476L260.1401,469.54755C260.01395,469.66016,259.8902,469.763,259.77087,469.85342L259.77087,469.85342C259.03708,469.7773,258.4574,469.59567,258.34845,469.41406C258.20547,469.12814,257.58594,468.9375,257.01407,468.9375C256.48984,468.9375,255.20313,468.36563,254.20233,467.6508C252.91962,466.78183,252.10394,466.48773,250.6635,466.48773C250.44496,466.48773,250.21205,466.49448,249.96094,466.50705C249.82863,466.5102,249.70111,466.5119,249.57762,466.5119C247.83301,466.5119,246.89323,466.17426,244.62344,464.83908C243.00311,463.83826,240.38202,461.83673,238.80937,460.35938C237.23672,458.88208,234.37735,456.6422,232.4711,455.35547C230.04062,453.73517,228.61093,452.35315,227.5625,450.6375C225.08438,446.6344,221.93906,442.77423,217.26874,437.8656C214.83827,435.33984,212.83672,433.09998,212.83672,432.8141C212.83672,432.5758,212.02655,431.432,210.97812,430.28833C209.59608,428.66797,209.07187,427.5719,208.69061,425.47498L208.21405,422.7586L212.3125,424.85547L216.41093,427.0L218.31718,425.09375L220.17578,423.1875L215.07655,418.37427C212.26483,415.75317,209.97734,413.27502,209.97734,412.8938C209.97734,412.5125,220.22343,389.6375,232.70938,362.04456L255.4414,311.91016L255.67969,307.9547C255.82233,305.81528,255.87007,304.0552,255.72833,304.0469 Z"/> </g> <g style="fill:rgb(0,0,0); fill-opacity:1.0; stroke-linejoin: miter"> </g> <g style="fill:rgb(0,0,0); fill-opacity:1.0; stroke-linejoin: miter"> </g> <g style="fill:rgb(0,0,0); fill-opacity:1.0; stroke-linejoin: miter"> <path d="M254.64792,440.3039C254.64835,440.304,254.64883,440.30414,254.64929,440.3046L254.64685,440.30408C254.64722,440.30386,254.64752,440.30386,254.64792,440.3039 Z"/> </g> <g style="fill:rgb(0,0,0); fill-opacity:1.0; stroke-linejoin: miter"> </g> </g> </svg>